<svg width="115" height="34" id="Layer_1" data-name="Layer 1" xmlns="http://www.w3.org/2000/svg" viewBox="0 0 134 40">
  <defs>
    <style>
      .cls-1{fill:#fff;}.cls-2{fill:#9b9b9b;}.cls-3{fill:#ec8900;}.cls-4{fill:#fac60f;}.cls-5{fill:#630069;}.cls-6{fill:#3499cc;}.cls-7{fill:#c4331a;}.cls-8{fill:none;stroke:#9b9b9b;stroke-miterlimit:10;stroke-width:0.5px;}
    </style>
  </defs>
  <title>Stitcher</title>
  <path class="cls-1"
        d="M6,.38H128A5.63,5.63,0,0,1,133.63,6V34A5.63,5.63,0,0,1,128,39.63H6A5.62,5.62,0,0,1,.38,34V6A5.62,5.62,0,0,1,6,.38Z"/>
  <path class="cls-2"
        d="M130.19,3.07a5.26,5.26,0,0,1,5.25,5.25v28a5.26,5.26,0,0,1-5.25,5.25H8.18a5.26,5.26,0,0,1-5.25-5.25v-28A5.26,5.26,0,0,1,8.18,3.07h122m0-.75H8.18a6,6,0,0,0-6,6v28a6,6,0,0,0,6,6h122a6,6,0,0,0,6-6v-28a6,6,0,0,0-6-6Z"
        transform="translate(-2.18 -2.32)"/>
  <polygon points="10.38 12.98 9.3 12.98 9.3 19.39 12.57 19.39 12.57 18.44 10.38 18.44 10.38 12.98"/>
  <rect x="14.17" y="12.98" width="1.07" height="6.41"/>
  <path d="M20.89,21.82a2.45,2.45,0,0,0,1.59-.51h0a1.82,1.82,0,0,0,.68-1.43,1.7,1.7,0,0,0-.4-1.11,2.53,2.53,0,0,0-.74-.53l-1.14-.48c-.38-.15-.74-.34-.74-.85s.36-.76,1-.76a1.72,1.72,0,0,1,1.29.63l.09.09.58-.76L23,16.05a2.49,2.49,0,0,0-1.86-.83,2.24,2.24,0,0,0-1.49.48A1.64,1.64,0,0,0,19.06,17a1.58,1.58,0,0,0,.44,1.15,2,2,0,0,0,.65.46c.23.12.65.29,1,.42h0c.32.13.91.37.91.92a1,1,0,0,1-1.12.95A2,2,0,0,1,19.48,20l-.07-.1-.66.74.06.07A2.72,2.72,0,0,0,20.89,21.82Z"
        transform="translate(-2.18 -2.32)"/>
  <polygon
          points="26.22 12.98 21.64 12.98 21.64 13.91 23.4 13.91 23.4 19.39 24.47 19.39 24.47 13.91 26.22 13.91 26.22 12.98"/>
  <polygon
          points="28.5 16.49 31.11 16.49 31.11 15.56 28.5 15.56 28.5 13.91 31.26 13.91 31.26 12.98 27.42 12.98 27.42 19.39 31.33 19.39 31.33 18.45 28.5 18.45 28.5 16.49"/>
  <path d="M39.25,15.3v3.39c0,.5,0,1,0,1.27l-3.34-4.62,0,0H34.82v6.41h1.07v-3.4c0-.5,0-1,0-1.34l3.39,4.7,0,0h1V15.3Z"
        transform="translate(-2.18 -2.32)"/>
  <path d="M22.35,24.21a3.31,3.31,0,1,0,3.31,3.3A3.19,3.19,0,0,0,22.35,24.21Zm0,5.61a2.17,2.17,0,0,1-2.21-2.33,2.22,2.22,0,1,1,4.43,0A2.17,2.17,0,0,1,22.35,29.82Z"
        transform="translate(-2.18 -2.32)"/>
  <path d="M31.34,27.69c0,.5,0,1,0,1.27L28,24.34l0,0H26.91v6.41H28v-3.4c0-.5,0-1,0-1.34l3.43,4.74h1V24.3H31.34Z"
        transform="translate(-2.18 -2.32)"/>
  <rect id="_Path_" data-name="&lt;Path&gt;" class="cls-3" x="96.15" y="5.99" width="11.89" height="7.13"/>
  <rect id="_Path_2" data-name="&lt;Path&gt;" class="cls-4" x="82.9" y="9.55" width="11.89" height="3.56"/>
  <rect id="_Path_3" data-name="&lt;Path&gt;" class="cls-5" x="69.65" y="7.59" width="11.89" height="5.53"/>
  <rect class="cls-6" x="56.34" y="11.18" width="11.94" height="1.94"/>
  <rect id="_Path_4" data-name="&lt;Path&gt;" class="cls-7" x="109.4" y="10.27" width="11.94" height="2.85"/>
  <rect id="_Path_5" data-name="&lt;Path&gt;" class="cls-3" x="96.15" y="26.92" width="11.89" height="3.89"/>
  <rect id="_Path_6" data-name="&lt;Path&gt;" class="cls-4" x="82.9" y="26.92" width="11.89" height="6.5"/>
  <rect id="_Path_7" data-name="&lt;Path&gt;" class="cls-5" x="69.65" y="26.92" width="11.89" height="3.89"/>
  <rect class="cls-6" x="56.34" y="26.92" width="11.94" height="5.4"/>
  <rect id="_Path_8" data-name="&lt;Path&gt;" class="cls-7" x="109.4" y="26.92" width="11.94" height="2.12"/>
  <path d="M92.25,27c-3.13,0-4.85-1.67-4.85-4.69,0-2.83,1.86-4.58,4.85-4.58S96,19.45,96,19.53l0,.07-1.92,1.19,0-.08a2.13,2.13,0,0,0-1.78-.93c-1.57,0-2.34.82-2.34,2.51s.83,2.59,2.34,2.61h0A2.4,2.4,0,0,0,94.05,24l0-.07L96,25.06l0,.07C96,25.21,95.25,27,92.25,27Zm10.66-.09v-3.5h-3.5v3.5H97V17.78h2.46v3.64h3.5V17.78h2.46v9.11Zm-20.83,0V19.82H79.42v-2h7.81v2H84.54v7.07Zm-6.41,0V17.78h2.46v9.11ZM62,27a6.11,6.11,0,0,1-3.45-1l0,0,.71-2.22.12.11a4.37,4.37,0,0,0,2.81,1.05c1.19,0,1.36-.33,1.36-.65,0-.58-.79-.79-1.69-1-1.35-.36-3-.81-3-2.74s1.29-2.78,3.64-2.78A4,4,0,0,1,66,19.5l0,.08-1.9,1.2-.06-.09a2.06,2.06,0,0,0-1.76-.92c-.92,0-.92.42-.92.55,0,.52.74.73,1.6,1,1.39.38,3.11.86,3.11,2.85S64.82,26.91,62.17,27Zm7.19-.08V19.82H66.56v-2h7.81v2H71.69v7.07Z"
        transform="translate(-2.18 -2.32)"/>
  <path d="M106.69,26.89V17.78h7.17v2h-4.71v1.63H112v1.87h-2.85v1.65h4.71v2Z" transform="translate(-2.18 -2.32)"/>
  <path d="M121.56,23.74a3,3,0,0,0,1.57-2.82c0-2-1.35-3.14-3.8-3.14h-4.27v9.11h2.46V24.23h1.62l1.49,2.66h2.9Zm-2.23-1.49h-1.81V19.76h1.81c1,0,1.46.4,1.46,1.24S120.31,22.25,119.33,22.25Z"
        transform="translate(-2.18 -2.32)"/>
  <line class="cls-8" x1="45.94" y1="5.08" x2="45.94" y2="34.92"/>
</svg>
